<svg width="476" height="452" viewBox="0 0 476 452" fill="none" xmlns="http://www.w3.org/2000/svg">
<path fill-rule="evenodd" clip-rule="evenodd" d="M426.452 121.953C453.374 166.77 482.631 215.793 474.09 267.388C465.201 321.084 424.244 363.585 380.993 396.554C338.157 429.207 286.965 450.002 233.139 451.061C179.865 452.109 127.631 434.347 84.9705 402.379C43.721 371.467 4.52145 328.498 0.912327 277.036C-2.50256 228.343 53.2681 197.34 67.3127 150.596C81.0367 104.92 43.7505 41.8058 80.6533 11.6418C117.332 -18.3388 171.18 23.0781 218.354 27.1363C257.623 30.5145 297.658 17.0507 333.532 33.3962C373.429 51.5745 403.86 84.342 426.452 121.953Z" fill="#8884FF"/>
</svg>
